<?xml version="1.0" encoding="utf-8"?>
<!-- Generator: Adobe Illustrator 27.5.0, SVG Export Plug-In . SVG Version: 6.00 Build 0)  -->
<svg version="1.1" xmlns="http://www.w3.org/2000/svg" xmlns:xlink="http://www.w3.org/1999/xlink" x="0px" y="0px"
	 viewBox="0 0 500 500" style="enable-background:new 0 0 500 500;" xml:space="preserve">
<g id="BACKGROUND">
	<rect style="fill:#FFFFFF;" width="500" height="500"/>
</g>
<g id="OBJECTS">
	<g>
		<path style="fill:#262626;" d="M173.265,412.022c-0.001-0.007,0.001-0.019,0.001-0.026c-0.007,0.022-0.013,0.037-0.02,0.055
			C173.255,412.039,173.258,412.03,173.265,412.022z"/>
		<path style="fill:#262626;" d="M234.929,347.652c-0.067-0.02-0.131-0.038-0.187-0.052
			C234.805,347.618,234.866,347.634,234.929,347.652z"/>
	</g>
	<path d="M396.545,219.734c-4.69-0.808-9.825,0.282-16.855,1.11c-2.017-12.377-5.28-23.063-10.431-33.813l0.601,1.579
		c-3.087-5.658-4.889-10.708-8.081-16.181c-0.784,0.768-6.91-8.124-7.855-8.891l0.223-0.002
		c-5.236-6.412-12.171-12.972-18.712-18.373l0.55-0.111c-13.377-10.412-24.943-17.835-41.6-24.206
		c-11.14-4.337-23.244-5.427-34.738-8.008c-3.299-7.422-4.992-14.69-9.311-23.178l-0.606-4.716l-0.375-0.57
		c-16.004-1.177-15.778,6.05-19.641,22.853l-0.078-0.053c-0.851,2.006-1.084,3.637-1.327,5.235
		c-3.297,0.805-7.115,1.973-10.61,2.687l0.049-0.107c-59.989,16.639-100.735,74.523-95.25,136.968
		c-9.673,1.616-16.273,0.973-26.651,2.719l-4.142-0.565l-0.579,0.164c0,0-5.168,12.848,3.358,14.533c0,0,7.134,0.341,9.486,0.123
		c6.972-0.607,13.832-1.166,20.718-1.788c0.737,3.622,1.51,6.67,2.147,8.993l-0.334-0.888c6.684,24.653,20.722,47.234,40.062,64.094
		c-1.984,6.671-3.907,13.163-4.444,15.508l0.286-0.633c-3.133,17.337-13.516,40.389-15.855,55.665c0,0,12.805,10.809,18.323,3.244
		c0,0,3.372-6.809,4.099-9.202c3.918-12.598,7.889-24.755,11.42-37.61c0.259-0.242,0.154,0.104,0.129,0.497
		c0.909-3.917,1.947-7.333,2.751-10.905c0.467-0.924,0.805-1.116,1.063-1.355c-0.106,0.099,0.05-0.679,0.363-1.965
		c47.67,29.114,109.516,22.844,152.07-13.53c4.253,9.963,8.475,19.991,9.551,23.06c0.708,2.501,3.615,7.39,3.615,7.39
		s1.401,1.353,2.485,4.556c2.023,5.323,4.555,10.963,6.672,16.28c-0.28,0.021,0.614,2.507,0.379,1.434
		c2.62,3.446,3.803,8.83,5.911,11.958c1.852,4.397,19.32,8.016,21.857,5.828c-1.001-2.853-4.841-11.896-6.28-17.186l0.095-0.005
		c-1.227-4.287-3.33-5.951-4.415-9.883c-1.105-2.427-4.363-9.877-5.077-12.753c-4.725-8.189-12.589-29.033-20.122-45.392
		c13.79-15.923,23.002-35.388,26.901-55.947l-0.06,1.021c1.669-7.195,3.532-23.038,2.902-33.151
		c4.666-0.576,8.672-1.148,9.948-1.524C391.331,233.932,396.646,220.656,396.545,219.734z M272.036,133.758
		c29.555,6.759,56.449,24.779,72.543,51.097c0.182,0.621,7.003,12.945,9.745,19.952c0.48,2.05,0.405,2.673,0.428,3.313
		c1.8,4.07,3.229,10.511,4.12,15.373c-11.738,1.313-39.121,4.723-49.09,5.908c-14.562-35.625-22.581-54.51-36.844-88.739
		l0.188,0.716c-1.239-2.317-2.783-5.624-3.924-8.134C270.443,133.497,271.251,133.678,272.036,133.758z M226.197,194.489
		c1.715-6.258,10.474-38.853,12.472-44.515c0.96-2.241,1.635-7.536,1.635-7.536s-0.284-1.823,0.806-4.8
		c1.2-3.727,2.288-7.741,3.397-11.643c2.193,5.546,4.441,11.097,6.837,16.704c-0.044,0.369,2.819,7.083,4.51,10.605
		c0.236,1.076,0.099,1.455,0.053,1.821c0.09-0.736,8.7,19.721,8.747,20.082c0,0,6.766,15.547,7.376,16.597
		c0.326,0.337,1.361,3.179,0.846,2.123c2.004,5.222,10.169,25.718,15.271,37.955c-29.641,3.129-43.072,5.954-73.216,9.095
		c1.247-4.867,4.968-18.282,5.496-20.086C220.767,217.017,226.457,194.25,226.197,194.489z M142.223,227.24
		c2.627-23.359,13.365-42.248,25.874-58.466c8.645-11.758,22.317-21.25,35.457-27.762c2.578-0.926,13.953-6.557,19.155-7.533
		c-3.346,11.838-11.995,44.718-14.396,53.484l0.027-0.388c-3.624,13.69-11.374,41.009-15.113,56.425
		c-12.999,1.675-38.497,4.709-51.645,5.808C141.124,241.634,141.264,234.529,142.223,227.24z M159.127,300.693
		c-8.406-13.456-11.397-18.467-15.168-35.409c2.76-0.069,6.164-1.424,8.654-0.582c3.575-0.911,19.52-2.221,23.987-2.931
		c1.245-1.046,5.711-0.529,6.846-1.137c-0.019,0.074,4.053-0.447,3.75-0.563l1.938-0.352c-3.245,14.356-13.217,44.217-16.283,57.531
		C168.759,313.227,163.486,307.323,159.127,300.693z M321.516,324.617c-9.519,8.738-30.331,18.24-38.664,21.649
		c-3.131,0.479-11.073,2.505-14.57,1.962l-3.038,0.624c-8.616,1.219-9.659,1.038-10.398,1.098c-0.748-0.033-1.261,0.05-8.975-0.364
		c-8.783-0.532-13.148-0.575-17.884-1.935c0.796,0.241,2.209,0.908,0.08,0.563c-0.589-0.614-6.432-1.222-7.071-2.014
		c-11.16-2.885-21.188-8.834-30.954-14.268c0.257-0.18,0.489-0.372,0.881-2.112c-0.699-1.684,2.812-11.853,3.58-13.636
		c2.051-6.444,12.121-41.577,11.187-40.953c0.13-1.963,0.908-2.688,0.726-3.621c1.244-0.416,2.413-5.802,2.413-5.802l0.622-0.818
		c1.484-7.316,0.534-3.275,1.766-7.074c9.737-1.081,18.865-2.195,18.413-2.452c2.524-0.552,9.635-0.812,10.286-0.453
		c7.892-1.376,1.789-0.446,8.847-1.101c4.07-0.52,6.96-1.577,8.002-1.817c0.227,0.409,2.778-0.615,3.34-0.238
		c1.029-0.167,6.793-0.917,5.04-0.468c10.64-1.179,18.333-2.404,29.543-4.331c3.723,7.361,0.911,1.469,3.813,8.761
		c1.879,4.238,8.917,18.299,8.917,18.299c5.145,12.659,15.569,33.884,19.729,42.541c0.223,0.522,0.532,1.239,0.898,2.09
		C325.963,320.766,323.794,322.747,321.516,324.617z M359.528,256.435c-0.144,0.63-0.256,1.674-0.568,3.526
		c0.522,4.539-2.356,10.429-3.078,14.785c-0.069-0.083-1.284,3.403-1.541,3.062c0.272,1.296-1.513,5.309-1.109,4.789
		c-2.405,6.849-4.244,9.142-11.236,19.753c-8.419-19.771-17.99-41.78-25.288-58.274c11.763-1.387,30.122-3.525,34.303-3.755
		c4.951-0.358,6.032-0.994,9.39-1.823C360.826,242.113,359.981,254.928,359.528,256.435z"/>
</g>
</svg>
